# xmcd
#
# Track frame offsets:
#	150
#	10944
#	23951
#	35343
#	49949
#	67038
#	79809
#	92126
#	106053
#	119443
#	131910
#	146368
#	165302
#
# Disc length: 2412 seconds
# Revision: 0
# Processed by: cddbd v1.5.2PL0 Copyright (c) Steve Scherf et al.
# Submitted via: dBpowerAMP V12.0
#
DISCID=aa096a0d
DTITLE=Mel Sommers - Picture From The Past
DYEAR=1992
DGENRE=Country
TTITLE0=Somebody's Back in Town
TTITLE1=A Night to Remember
TTITLE2=Australia Never Changes
TTITLE3=Same Time Tomorrow
TTITLE4=A Childs Prayer
TTITLE5=The Old Battler
TTITLE6=Picture From The Past
TTITLE7=I'm Wanting Too
TTITLE8=You'll Do Me Mate
TTITLE9=Junius
TTITLE10=Australian Guitars
TTITLE11=Forgotten Men of Australia
TTITLE12=Private Bill Butler
EXTD=
EXTT0=
EXTT1=
EXTT2=
EXTT3=
EXTT4=
EXTT5=
EXTT6=
EXTT7=
EXTT8=
EXTT9=
EXTT10=
EXTT11=
EXTT12=
PLAYORDER=
